HIERARCHY
ROOT Hips
{
  OFFSET 1.44925e-005 102.336 -0.101585
  CHANNELS 6 Xposition Yposition Zposition Zrotation Xrotation Yrotation
  JOINT LeftUpLeg
  {
    OFFSET 8.9458 -8.66707 0.101652
    CHANNELS 3 Zrotation Xrotation Yrotation
    JOINT LeftLeg
    {
      OFFSET 0 -44.4227 1.3727
      CHANNELS 3 Zrotation Xrotation Yrotation
      JOINT LeftFoot
      {
        OFFSET -0.253549 -42.0924 -1.46059
        CHANNELS 3 Zrotation Xrotation Yrotation
        JOINT LeftToes
        {
          OFFSET -0.04 -4.41509 8.4991
          CHANNELS 3 Zrotation Xrotation Yrotation
          End Site
          {
            OFFSET 0.08 -0.047448 9.77979
          }
        }
      }
    }
  }
  JOINT Spine
  {
    OFFSET 0 11.8905 0
    CHANNELS 3 Zrotation Xrotation Yrotation
    JOINT Spine1
    {
      OFFSET 0 25.6574 0.127663
      CHANNELS 3 Zrotation Xrotation Yrotation
      JOINT RightShoulder
      {
        OFFSET -8.99 -0.362252 -0.22
        CHANNELS 3 Zrotation Xrotation Yrotation
        JOINT RightArm
        {
          OFFSET -10.2827 -0.00338 0.322123
          CHANNELS 3 Zrotation Xrotation Yrotation
          JOINT RightForeArm
          {
            OFFSET -26.364 0.099144 -1.42434
            CHANNELS 3 Zrotation Xrotation Yrotation
            JOINT RightHand
            {
              OFFSET -22.0324 0.085362 1.02216
              CHANNELS 3 Zrotation Xrotation Yrotation
              End Site
              {
                OFFSET -13.3284 -0.6 1.50291
              }
            }
          }
        }
      }
      JOINT LeftShoulder1
      {
        OFFSET 8.99 -0.362252 -0.22
        CHANNELS 3 Zrotation Xrotation Yrotation
        JOINT LeftArm
        {
          OFFSET 10.2827 -0.00337999 0.322123
          CHANNELS 3 Zrotation Xrotation Yrotation
          JOINT LeftForeArm
          {
            OFFSET 26.2597 0.099144 -1.42434
            CHANNELS 3 Zrotation Xrotation Yrotation
            JOINT LeftHand
            {
              OFFSET 22.0902 0.085362 1.02216
              CHANNELS 3 Zrotation Xrotation Yrotation
              End Site
              {
                OFFSET 13.419 -0.6 1.50291
              }
            }
          }
        }
      }
      JOINT Head
      {
        OFFSET 0 8.73416 0.011341
        CHANNELS 3 Zrotation Xrotation Yrotation
        End Site
        {
          OFFSET -0.29 12.7742 2.51395
        }
      }
    }
  }
  JOINT RightUpLeg
  {
    OFFSET -8.9458 -8.66707 0.101652
    CHANNELS 3 Zrotation Xrotation Yrotation
    JOINT RightLeg
    {
      OFFSET 0 -44.4227 1.3727
      CHANNELS 3 Zrotation Xrotation Yrotation
      JOINT RightFoot
      {
        OFFSET 0.253549 -42.0924 -1.46059
        CHANNELS 3 Zrotation Xrotation Yrotation
        JOINT RightToes
        {
          OFFSET 0.04 -4.41509 8.4991
          CHANNELS 3 Zrotation Xrotation Yrotation
          End Site
          {
            OFFSET -0.08 -0.137448 9.77979
          }
        }
      }
    }
  }
}
MOTION
Frames:	8
Frame Time:	0.0333333
32.9992 101.87 4.35278 -9.96278 -0.875659 -87.3642 0.556612 5.87686 3.20375 1.25134 13.4828 13.8827 -4.32146 -12.8892 -0.137643 -1.2588e-009 8.75279e-006 -1.48356e-008 -1.08308 5.46549 -0.748454 0.44518 6.48183 -0.750118 35.434 1.73397 0.134658 44.4601 -16.2099 7.89546 7.50687 35.4799 9.83724 -6.09449 9.7303 -1.8741 -41.9465 3.43817 -3.60066 -29.9381 -8.52399 2.57902 -1.64536 32.2896 -18.7455 5.82328 9.61819 -0.917488 -4.18037 38.369 2.54683 -2.0201 4.27289 -5.52563 -0.221832 13.9324 -11.1408 4.33777 -12.4892 -0.0214085 0.0462048 0.000530889 0.662642 
33.1863 101.889 4.38905 -9.8325 -0.943849 -87.3572 0.473225 5.67992 3.16696 1.19958 13.3509 13.8856 -4.24624 -12.6828 -0.127591 -1.2588e-009 8.75279e-006 -1.48356e-008 -1.03761 5.55226 -0.730133 0.374799 6.67472 -0.72668 35.4834 1.73534 0.128015 44.5235 -17.682 7.98652 7.80813 36.4914 9.01239 -5.909 9.74737 -2.147 -41.9642 3.43855 -3.5986 -29.7982 -9.82596 2.58323 -2.15465 33.3187 -17.8754 5.82328 9.61819 -0.917488 -4.11722 38.6622 2.61088 -2.10813 4.01041 -5.48887 -0.259397 13.938 -11.172 4.35943 -12.3873 -0.0224115 0.0462048 0.000530889 0.662642 
33.3571 101.905 4.41214 -9.67232 -0.998508 -87.3953 0.437042 5.4517 3.19476 1.10094 13.2607 13.8813 -4.21188 -12.5262 -0.121158 -1.2588e-009 8.75279e-006 -1.48356e-008 -0.881908 5.66896 -0.71376 0.12241 6.72532 -0.657696 35.6111 1.73606 0.119238 44.4746 -18.9329 7.99864 8.07698 37.5228 8.24365 -5.39468 9.76761 -2.29784 -41.7581 3.40673 -3.56536 -29.8084 -10.9772 2.61921 -2.70101 34.3064 -16.9942 5.82328 9.61819 -0.917488 -4.05387 38.8886 2.73661 -2.18747 3.74713 -5.45081 -0.283094 13.8941 -11.1547 4.38784 -12.2978 -0.0223617 0.0462048 0.000530889 0.662642 
33.5157 101.91 4.42209 -9.48522 -1.01374 -87.3851 0.46249 5.12263 3.23712 0.998713 13.3129 13.8676 -4.23894 -12.4777 -0.120421 -1.2588e-009 8.75279e-006 -1.48356e-008 -0.746585 5.78241 -0.747371 0.0188168 6.72412 -0.667792 35.6101 1.73633 0.116042 44.4893 -19.967 8.00797 8.28772 38.6624 7.54964 -5.01585 9.77733 -2.29004 -41.6544 3.38896 -3.54485 -29.7571 -11.5964 2.8103 -3.05135 34.9559 -16.4379 5.82328 9.61819 -0.917488 -4.06126 39.0635 2.91996 -2.21463 3.46492 -5.40116 -0.291093 13.8596 -11.2054 4.4878 -12.231 -0.0204787 0.0462048 0.000530889 0.662642 
33.6694 101.914 4.41168 -9.26192 -0.985909 -87.3808 0.527288 4.72722 3.26017 0.926617 13.4101 13.8697 -4.28633 -12.4254 -0.11944 -1.2588e-009 8.75279e-006 -1.48356e-008 -0.704161 5.84239 -0.788103 0.182239 6.76239 -0.747364 35.5139 1.73637 0.123102 44.4948 -20.593 8.00341 8.44862 39.4453 7.05336 -4.96464 9.77934 -2.29284 -41.8015 3.40721 -3.5595 -29.5832 -11.7899 3.1622 -3.12029 35.0812 -16.3243 5.82328 9.61819 -0.917488 -4.19596 39.1579 3.14336 -2.17883 3.13061 -5.31074 -0.302202 13.8505 -11.3064 4.65465 -12.1857 -0.0152083 0.0462048 0.000530889 0.662642 
33.8172 101.927 4.36408 -8.96912 -0.943434 -87.5194 0.591543 4.32917 3.25584 0.876279 13.3956 14.0074 -4.32334 -12.2757 -0.118342 -1.2588e-009 8.75279e-006 -1.48356e-008 -0.691566 5.84813 -0.762841 0.384003 6.77353 -0.770956 35.4883 1.73639 0.137094 44.3549 -20.7146 7.89688 8.55944 39.5683 6.85279 -5.09617 9.7821 -2.34793 -41.9452 3.42958 -3.58315 -29.4874 -11.9237 3.57866 -3.00511 34.8892 -16.4761 5.82328 9.61819 -0.917488 -4.36113 39.2313 3.34563 -2.1288 2.68175 -5.19568 -0.310367 13.8859 -11.3002 4.81486 -12.1678 -0.00942359 0.0462048 0.000530889 0.662642 
33.9508 101.95 4.26765 -8.62495 -0.917537 -87.7761 0.636402 3.96505 3.22291 0.837666 13.248 14.2926 -4.36339 -12.0835 -0.117292 -1.2588e-009 8.75279e-006 -1.48356e-008 -0.62754 5.85994 -0.690705 0.413476 6.67303 -0.703584 35.5543 1.73657 0.146565 44.1609 -20.6225 7.70208 8.60478 39.3727 6.85593 -5.17106 9.78538 -2.36433 -41.8766 3.42484 -3.58416 -29.5614 -12.0891 3.97705 -2.79465 34.6678 -16.7335 5.82328 9.61819 -0.917488 -4.41505 39.3795 3.49476 -2.08729 2.14794 -5.07242 -0.319556 13.9691 -11.1839 4.91058 -12.1638 -0.00574954 0.0462048 0.000530889 0.662642 
34.0716 101.97 4.11985 -8.32189 -0.915337 -87.9543 0.686746 3.64446 3.17361 0.82645 13.09 14.5148 -4.42551 -11.9146 -0.116462 -1.2588e-009 8.75279e-006 -1.48356e-008 -0.543499 5.96412 -0.672533 0.344664 6.50978 -0.664907 35.6315 1.7366 0.14411 44.0957 -20.6166 7.56028 8.59283 39.223 6.91035 -5.07304 9.78775 -2.36474 -41.709 3.40369 -3.56678 -29.6679 -12.0742 4.34449 -2.47995 34.3469 -17.1396 5.82328 9.61819 -0.917488 -4.39285 39.5655 3.66086 -2.00067 1.69149 -4.90404 -0.363314 14.0243 -11.1759 4.92203 -12.1507 -0.00577432 0.0462048 0.000530889 0.662642 
